DataType=double
version=3
OpenSimVersion=4.5.2-2025-05-03-6a4c6ec41
endheader
time	q	/jointset/head_joint/q/speed
7.509999999999884	-1.562500000000096	1.249999999999952
7.519999999999884	-1.550025000000097	1.244999999999952
7.529999999999884	-1.537600000000098	1.239999999999952
7.539999999999884	-1.525225000000098	1.234999999999952
7.549999999999883	-1.512900000000099	1.229999999999952
7.559999999999883	-1.5006250000001	1.224999999999952
7.569999999999883	-1.4884000000001	1.219999999999952
7.579999999999883	-1.476225000000101	1.214999999999953
7.589999999999883	-1.464100000000102	1.209999999999953
7.599999999999882	-1.452025000000103	1.204999999999953
7.609999999999882	-1.440000000000103	1.199999999999953
7.619999999999882	-1.428025000000104	1.194999999999953
7.629999999999882	-1.416100000000105	1.189999999999953
7.639999999999882	-1.404225000000106	1.184999999999953
7.649999999999881	-1.392400000000106	1.179999999999953
7.659999999999881	-1.380625000000107	1.174999999999953
7.669999999999881	-1.368900000000108	1.169999999999954
7.679999999999881	-1.357225000000109	1.164999999999954
7.68999999999988	-1.345600000000109	1.159999999999954
7.69999999999988	-1.33402500000011	1.154999999999954
7.70999999999988	-1.322500000000111	1.149999999999954
7.71999999999988	-1.311025000000112	1.144999999999954
7.72999999999988	-1.299600000000112	1.139999999999954
7.739999999999879	-1.288225000000113	1.134999999999954
7.749999999999879	-1.276900000000114	1.129999999999954
7.759999999999879	-1.265625000000114	1.124999999999954
7.769999999999879	-1.254400000000115	1.119999999999955
7.779999999999879	-1.243225000000116	1.114999999999955
7.789999999999878	-1.232100000000116	1.109999999999955
7.799999999999878	-1.221025000000117	1.104999999999955
7.809999999999878	-1.210000000000118	1.099999999999955
7.819999999999878	-1.199025000000118	1.094999999999955
7.829999999999878	-1.188100000000119	1.089999999999955
7.839999999999877	-1.17722500000012	1.084999999999955
7.849999999999877	-1.16640000000012	1.079999999999955
7.859999999999877	-1.155625000000121	1.074999999999956
7.869999999999877	-1.144900000000121	1.069999999999956
7.879999999999876	-1.134225000000122	1.064999999999956
7.889999999999876	-1.123600000000123	1.059999999999956
7.899999999999876	-1.113025000000123	1.054999999999956
7.909999999999876	-1.102500000000124	1.049999999999956
7.919999999999876	-1.092025000000125	1.044999999999956
7.929999999999875	-1.081600000000126	1.039999999999956
7.939999999999875	-1.071225000000126	1.034999999999956
7.949999999999875	-1.060900000000127	1.029999999999957
7.959999999999875	-1.050625000000128	1.024999999999957
7.969999999999875	-1.040400000000128	1.019999999999957
7.979999999999874	-1.030225000000129	1.014999999999957
7.989999999999874	-1.02010000000013	1.009999999999957
7.999999999999874	-1.01002500000013	1.004999999999957
8.009999999999874	-1.000000000000131	0.9999999999999571
8.019999999999873	-0.9900250000001316	0.9949999999999573
8.029999999999873	-0.9801000000001322	0.9899999999999574
8.039999999999873	-0.9702250000001328	0.9849999999999575
8.049999999999873	-0.9604000000001334	0.9799999999999576
8.059999999999873	-0.9506250000001339	0.9749999999999577
8.069999999999872	-0.9409000000001346	0.9699999999999578
8.079999999999872	-0.9312250000001353	0.9649999999999579
8.089999999999872	-0.921600000000136	0.959999999999958
8.099999999999872	-0.9120250000001366	0.9549999999999581
8.109999999999872	-0.9025000000001373	0.9499999999999582
8.119999999999871	-0.893025000000138	0.9449999999999583
8.129999999999871	-0.8836000000001386	0.9399999999999584
8.139999999999871	-0.8742250000001393	0.9349999999999585
8.149999999999871	-0.8649000000001399	0.9299999999999586
8.15999999999987	-0.8556250000001405	0.9249999999999587
8.16999999999987	-0.8464000000001412	0.9199999999999589
8.17999999999987	-0.8372250000001418	0.914999999999959
8.18999999999987	-0.8281000000001424	0.9099999999999591
8.19999999999987	-0.819025000000143	0.9049999999999592
8.209999999999869	-0.8100000000001436	0.8999999999999593
8.219999999999869	-0.8010250000001442	0.8949999999999594
8.229999999999869	-0.7921000000001448	0.8899999999999595
8.239999999999869	-0.7832250000001454	0.8849999999999596
8.249999999999869	-0.774400000000146	0.8799999999999597
8.259999999999868	-0.7656250000001465	0.8749999999999598
8.269999999999868	-0.7569000000001471	0.8699999999999599
8.279999999999868	-0.7482250000001477	0.86499999999996
8.289999999999868	-0.7396000000001482	0.8599999999999601
8.299999999999867	-0.7310250000001488	0.8549999999999602
8.309999999999867	-0.7225000000001494	0.8499999999999603
8.319999999999867	-0.7140250000001499	0.8449999999999604
8.329999999999867	-0.7056000000001504	0.8399999999999606
8.339999999999867	-0.697225000000151	0.8349999999999607
8.349999999999866	-0.6889000000001515	0.8299999999999608
8.359999999999866	-0.680625000000152	0.8249999999999609
8.369999999999866	-0.6724000000001525	0.819999999999961
8.379999999999866	-0.6642250000001531	0.8149999999999611
8.389999999999866	-0.6561000000001536	0.8099999999999612
8.399999999999865	-0.6480250000001542	0.8049999999999613
8.409999999999865	-0.6400000000001548	0.7999999999999614
8.419999999999865	-0.6320250000001554	0.7949999999999615
8.429999999999865	-0.624100000000156	0.7899999999999616
8.439999999999864	-0.6162250000001566	0.7849999999999617
8.449999999999864	-0.6084000000001571	0.7799999999999618
8.459999999999864	-0.6006250000001577	0.7749999999999619
8.469999999999864	-0.5929000000001583	0.769999999999962
8.479999999999864	-0.5852250000001589	0.7649999999999622
8.489999999999863	-0.5776000000001594	0.7599999999999623
8.499999999999863	-0.57002500000016	0.7549999999999624
8.509999999999863	-0.5625000000001605	0.7499999999999625
8.519999999999863	-0.5550250000001611	0.7449999999999626
8.529999999999863	-0.5476000000001616	0.7399999999999627
8.539999999999862	-0.5402250000001622	0.7349999999999628
8.549999999999862	-0.5329000000001627	0.7299999999999629
8.559999999999862	-0.5256250000001632	0.724999999999963
8.569999999999862	-0.5184000000001637	0.7199999999999631
